PathFileType	4	(X/Y/Z)	Kaydara	
DataRate	CameraRate	NumFrames	NumMarkers	Units	OrigDataRate	OrigDataStartFrame	OrigNumFrames	
240.00	240.00	4	72	mm	240.00	1	355	
Frame#	Time	Hips			RightUpLeg			RightLeg			RightFoot			RightFoot_End			LeftUpLeg			LeftLeg			LeftFoot			LeftFoot_End			Spine			Spine1			Spine2			Spine3			Neck			Head			Head_End			RightShoulder			RightArm			RightForeArm			RightHand			RightHandThumb1			RightHandThumb2			RightHandThumb3			RightHandThumb3_End			RightInHandIndex			RightHandIndex1			RightHandIndex2			RightHandIndex3			RightHandIndex3_End			RightInHandMiddle			RightHandMiddle1			RightHandMiddle2			RightHandMiddle3			RightHandMiddle3_End			RightInHandRing			RightHandRing1			RightHandRing2			RightHandRing3			RightHandRing3_End			RightInHandPinky			RightHandPinky1			RightHandPinky2			RightHandPinky3			RightHandPinky3_End			LeftShoulder			LeftArm			LeftForeArm			LeftHand			LeftHandThumb1			LeftHandThumb2			LeftHandThumb3			LeftHandThumb3_End			LeftInHandIndex			LeftHandIndex1			LeftHandIndex2			LeftHandIndex3			LeftHandIndex3_End			LeftInHandMiddle			LeftHandMiddle1			LeftHandMiddle2			LeftHandMiddle3			LeftHandMiddle3_End			LeftInHandRing			LeftHandRing1			LeftHandRing2			LeftHandRing3			LeftHandRing3_End			LeftInHandPinky			LeftHandPinky1			LeftHandPinky2			LeftHandPinky3			LeftHandPinky3_End			
		X1	Y1	Z1	X2	Y2	Z2	X3	Y3	Z3	X4	Y4	Z4	X5	Y5	Z5	X6	Y6	Z6	X7	Y7	Z7	X8	Y8	Z8	X9	Y9	Z9	X10	Y10	Z10	X11	Y11	Z11	X12	Y12	Z12	X13	Y13	Z13	X14	Y14	Z14	X15	Y15	Z15	X16	Y16	Z16	X17	Y17	Z17	X18	Y18	Z18	X19	Y19	Z19	X20	Y20	Z20	X21	Y21	Z21	X22	Y22	Z22	X23	Y23	Z23	X24	Y24	Z24	X25	Y25	Z25	X26	Y26	Z26	X27	Y27	Z27	X28	Y28	Z28	X29	Y29	Z29	X30	Y30	Z30	X31	Y31	Z31	X32	Y32	Z32	X33	Y33	Z33	X34	Y34	Z34	X35	Y35	Z35	X36	Y36	Z36	X37	Y37	Z37	X38	Y38	Z38	X39	Y39	Z39	X40	Y40	Z40	X41	Y41	Z41	X42	Y42	Z42	X43	Y43	Z43	X44	Y44	Z44	X45	Y45	Z45	X46	Y46	Z46	X47	Y47	Z47	X48	Y48	Z48	X49	Y49	Z49	X50	Y50	Z50	X51	Y51	Z51	X52	Y52	Z52	X53	Y53	Z53	X54	Y54	Z54	X55	Y55	Z55	X56	Y56	Z56	X57	Y57	Z57	X58	Y58	Z58	X59	Y59	Z59	X60	Y60	Z60	X61	Y61	Z61	X62	Y62	Z62	X63	Y63	Z63	X64	Y64	Z64	X65	Y65	Z65	X66	Y66	Z66	X67	Y67	Z67	X68	Y68	Z68	X69	Y69	Z69	X70	Y70	Z70	X71	Y71	Z71	X72	Y72	Z72	

1	0.0	6921.0129	906.651	56.2195	6982.437608448977	885.0982905889359	-3.601009918033945	6904.326546580628	484.27088484473506	-95.03879590503685	6893.089380923305	102.82469660999254	-171.9825537987614	6819.143790105991	27.306412233030116	-12.712156121081	6869.125943563156	900.2930746124791	128.28345054514278	6803.269477839082	498.93897610847114	228.00485764891988	6743.556279110627	68.13299888522349	295.5444099766978	6613.302703129793	-9.11277224108228	179.20923296405547	6876.370420674405	1031.430006404387	3.0698852847667144	6820.617116320869	1093.8511792629376	-45.37278469613779	6757.439505720887	1153.1320058790081	-96.38045767830214	6690.158127177955	1201.2730977753781	-145.69686522836122	6618.066960497189	1253.0668973957454	-197.76583428332643	6551.718280090297	1300.5770491709077	-244.1511911459038	6435.182520820942	1400.7694228964197	-286.69538108053865	6653.891328602259	1228.7317592365014	-203.0573396941703	6656.503479556555	1165.1404228016715	-285.71964211941855	6661.952848916088	932.6316150567153	-169.21373561670438	6684.80061893726	667.7231254110982	-37.544184019772786	6679.090757969723	633.3795660990478	-34.460100108604024	6672.5458048671335	609.4678853707221	-19.51943463786165	6669.445929035174	592.8048044617316	-6.175536054375868	6668.108999259661	578.9041224925342	7.463120041262243	6684.298516523355	628.4883717787662	-23.744197935203943	6686.751831092799	575.8520547148244	8.695933779790437	6685.761651102689	548.3075482639638	31.823198144659443	6682.287359459544	540.263353087296	41.59297418427457	6677.483412428368	539.7300629567692	46.57088379756169	6688.050514637589	630.7223824530773	-16.852861486748452	6692.473631815875	580.5882869912316	18.51563888966973	6691.876888536157	551.0086050972375	44.556843085860635	6687.91740745754	541.5324354903329	56.7298872339897	6682.773860758624	541.0601829254181	62.364348436523755	6690.676103583389	633.5411094592267	-12.791890032099786	6697.028752162531	590.7570526869878	22.489262830886105	6696.995678629396	565.5428323298281	45.95346197928984	6693.435089268532	556.7037357354214	58.102418592642266	6688.72142084833	556.4025447727252	63.59313953304792	6693.336471029603	639.1245701207606	-9.209268822930255	6700.929506816897	602.9635390396268	25.436857924235028	6701.634890855384	583.8456886522553	45.26807619602323	6699.391813025468	577.9173478498739	54.63360263138867	6695.420017159635	577.9491944906925	59.78756284592765	6630.072232184109	1243.914173402371	-156.72140799641295	6614.09086964939	1227.5518477060973	-53.48743072048322	6708.864645533108	1000.0967195917037	-86.70008392817115	6794.568960069122	765.7107160638125	-88.22565804587131	6783.103957477284	746.6797941527656	-87.56749156943164	6780.404586029474	725.4213022795977	-103.89948116269767	6781.035271819533	708.8142026974523	-117.09063048657913	6783.708738965992	693.4274339208685	-129.6423917146846	6790.84531873963	737.7047244872797	-92.92165580781767	6795.35990453042	691.5383468527856	-111.60841017163028	6799.603639205364	663.5073877526046	-130.49302114020963	6800.451507812396	653.3798050675163	-142.53079381434225	6799.94556576844	649.9207865587164	-152.69493354894075	6797.56880329663	734.603274863335	-97.49420618078875	6805.608612301437	687.8952372350595	-118.19232218056806	6811.113252051694	657.0535181776416	-139.34925847448335	6812.555516878617	644.7129254657249	-154.13634829615438	6812.205781520195	640.8688107255067	-165.38608202931147	6802.209855967687	733.5276314892241	-100.20374712921566	6813.461809179931	690.551116515273	-120.976413176374	6819.1401298804085	663.4836728726294	-139.9469759976598	6820.998875744296	651.4816024223144	-154.4918084510676	6820.891607711869	647.8204537786005	-165.2027919959272	6807.3799232721685	734.1182413002529	-103.13274898013853	6820.909462059801	694.8397026468228	-123.84905734781029	6826.780953873095	673.0632882919672	-139.77672621583358	6828.777432286084	664.2596804772124	-150.74217758234732	6829.051144108558	660.9881562133965	-160.4354730698126
2	0.004	6921.0129	906.651	56.2195	6982.717947279405	885.2207314631979	-3.4692002888816518	6904.672091269883	484.38486315538756	-94.95176292521163	6893.161713602319	102.88513680726317	-171.8137362726264	6819.211267146213	27.37932545636056	-12.539482653307497	6868.839653370963	900.1650724825031	128.14511050539264	6802.941030559539	498.7927915147113	227.7759670872801	6743.553995583612	67.98259701377106	295.6112764325215	6613.2429889511495	-9.198822815577216	179.29084900345197	6876.389878984696	1031.4509742543494	3.093436894637554	6820.729393955927	1093.9246017915148	-45.380815632697036	6757.655114691062	1153.2594474436785	-96.44518729994768	6690.480432865702	1201.4416154267747	-145.85911358256155	6618.500318585472	1253.278877391301	-198.0305531641562	6552.247064950037	1300.8241732468925	-244.51033598841752	6435.707194795018	1400.9748242195494	-287.1341228471523	6654.4278081344255	1229.0560790315485	-203.2610517371906	6657.7092886002665	1166.1439362698932	-286.2179974362279	6663.620096141949	933.3012911625603	-170.81465425905844	6687.039923720723	668.9416783680155	-40.713558862467494	6681.554486555713	634.7543948707142	-37.837966269473725	6675.007489266582	610.9239863100036	-23.218407934021343	6671.880412098171	594.3092026893548	-10.101201585553042	6670.498753557822	580.4416830884622	3.345841954641287	6686.708486660138	629.8553457245188	-27.14557814152272	6689.24880435275	577.3823160555	4.899857693720207	6688.222715851636	549.9110449982232	27.717030912973144	6684.687403193892	541.884297593025	37.307710798038556	6679.806846954135	541.346506347449	42.146615129891586	6690.382760612196	632.0591765014041	-20.2505462248065	6694.848724507682	582.068033866718	14.7349886320074	6694.202139692776	552.5637040628803	40.43954533974818	6690.163924327121	543.1063951575263	52.39734373409192	6684.934066810844	542.6281532002058	57.8801101250412	6692.952045464613	634.8528029935229	-16.176630865254253	6699.296640300907	592.1762078238445	18.773308417731926	6699.2091542369535	567.0227719430573	41.946446725979854	6695.566793376736	558.1992696117306	53.889036313497854	6690.769210153207	557.8912157660028	59.23772045293157	6695.538474562853	640.3995435277429	-12.569712757783918	6703.0813479051785	604.3157938299353	21.788354330179004	6703.726074238461	585.2385127540978	41.39162987379319	6701.415086779181	579.3176259751076	50.609111963981036	6697.364199337199	579.3411369245295	55.6386782748292	6630.3201164126185	1243.9799434342438	-156.97515486782794	6613.7003814578875	1227.0523913798272	-53.95609361286985	6709.2926422285	1000.1655300320988	-87.99374513571725	6796.027452150074	766.5833714640294	-90.27719378600065	6784.5663596691675	747.7437774156012	-89.9802155492448	6781.987224199533	726.5904488537442	-106.5415859630433	6782.687139441779	710.0501692527976	-119.86437460322304	6785.405913336189	694.7136168860071	-132.5018377306999	6792.239027862654	738.7732873554922	-95.2767994454916	6796.674718011969	692.8390999815582	-114.27993744898274	6800.954691036605	664.9161769579625	-133.33121103427982	6801.89305293693	654.8135781502697	-145.4415674066666	6801.507855956061	651.3467855969866	-155.64485370177454	6798.930144985065	735.643761256654	-99.75936286405314	6806.875468001563	689.1470237018266	-120.71741123516756	6812.415749933494	658.4186688582852	-142.04324294415736	6813.965319788312	646.1060468695907	-156.9116799272038	6813.746791508794	642.2523702941148	-168.20122209514767	6803.549307402414	734.5429046723518	-102.3976770150309	6814.694549019563	691.7354730776937	-123.34270071415048	6820.400108670326	664.7618743885013	-142.44680583869496	6822.360326605302	652.784147792071	-157.06284575626393	6822.375463350589	649.1127593655957	-167.80781966392766	6808.704591599704	735.0934114556867	-105.23209113108854	6822.1236397848625	695.9471453604971	-126.04969207810399	6828.011446127192	674.2373931918933	-142.062218998346	6830.079279438819	665.4474372113364	-153.06892965178525	6830.459891548331	662.1644798780892	-162.7861887668855
3	0.008	6921.0129	906.651	56.2195	6982.9984107647615	885.3432939327897	-3.3371271472897046	6905.017177689842	484.49894948886293	-94.86383651537787	6893.235774223886	102.94594511852611	-171.64450388714164	6819.2804064965685	27.45251301146317	-12.366472997835752	6868.553163865321	900.0369030916808	128.00645808038107	6802.613259839455	498.6463243860497	227.54689856664874	6743.552714390543	67.83196394472441	295.67811147358196	6613.184330824608	-9.285205003554474	179.37243713922103	6876.40966795324	1031.4721435332985	3.117197206161208	6820.842424924469	1093.9985657701584	-45.388631617600254	6757.87196931896	1153.3878149466734	-96.5098047876423	6690.804517651469	1201.611404752485	-146.02157892256741	6618.936003865691	1253.4924767323073	-198.29584246258173	6552.778639738486	1301.0731887047814	-244.87039179014118	6436.234413690626	1401.1814719135064	-287.574459733066	6654.96696997945	1229.382531846304	-203.46495162875098	6658.922081877751	1167.1546857542323	-286.7173388603175	6665.29585446476	933.9771311892272	-172.42621249683032	6689.292687063025	670.1764568814637	-43.91727535459819	6684.032781982704	636.1492747278309	-41.25090303482875	6677.484543047345	612.4027198740567	-26.95481166766615	6674.330815445988	595.8377295315997	-14.066312746529434	6672.904880573661	582.0043612635059	-0.8128798090206715	6689.133145418611	631.241728910649	-30.583408332310057	6691.762105482165	578.9353473004563	1.0626423801767828	6690.700988963893	551.5391748197139	23.56635266914384	6687.104939141339	543.5307575819006	32.97644732450078	6682.147830860802	542.9890094468175	37.675523417775764	6692.729604062668	633.414419385372	-23.685534140642574	6697.239964322052	583.5689881206076	10.911999988138462	6696.544481096949	554.1419052921188	36.27613241750748	6692.427865419277	544.7044553388092	48.016841757289455	6687.111755515165	544.2207872257769	53.3469901283587	6695.242481513019	636.1821846028463	-19.599160256815367	6701.580330253272	593.6148731564485	15.014624932028369	6701.439233156066	568.523727681724	37.893318838774746	6697.715412036526	559.7167051510634	49.627714695747954	6692.833963780279	559.4022813499596	54.83347091113308	6697.754782727149	641.6912030674115	-15.968351010521417	6705.248586457981	605.6858012083107	18.096865755908823	6705.83325913691	586.6500601195718	37.469367645286525	6703.4545708027	580.7371594963867	46.53741421284468	6699.324625361211	580.7527059250612	51.44176340639814	6630.569571366431	1244.0465584038154	-157.2296095634596	6613.30896959221	1226.5506860359567	-54.427255352797076	6709.7186183712	1000.2375747397512	-89.29878003890173	6797.486727443255	767.4687568724044	-92.35254954043722	6786.030175610353	748.822408734267	-92.41757063312048	6783.570497377564	727.774383568253	-109.20893106182314	6784.33871544606	711.3009944312497	-122.6637239815908	6787.101694833397	696.0146940734786	-135.38714255028117	6793.632848886799	739.8567847981327	-97.65645032514576	6797.987114234957	694.1571573876647	-116.97674077701345	6802.30146968553	666.3428106891381	-136.19513601696093	6803.329627733179	656.2647611635387	-148.3783083991582	6803.064906833595	652.7893151467471	-158.62089774033905	6800.290636785169	736.6989734094465	-102.04883518757663	6808.138486742163	690.4157346331042	-123.26746218713603	6813.712266851592	659.8012968980034	-144.7626623428778	6815.368243635804	647.5161037320844	-159.7127133884594	6815.280600402219	643.6518945321343	-171.04222871279939	6804.887291942703	735.5727071696919	-104.61576809263073	6815.922603372278	692.9361927072212	-125.73359611763931	6821.653416533193	666.0568798501324	-144.97162633094638	6823.714178269118	654.1029526121688	-159.6591154883029	6823.851387628375	650.4204012902479	-170.43822721198336	6810.027171258186	736.0827248434626	-107.35538996053259	6823.332385776712	697.0702147292994	-128.27456914179524	6829.2347487389015	675.4274056977672	-144.37221264324995	6831.373178577451	666.6506695226491	-155.42033572063553	6831.860349948776	663.3554413232324	-165.16167572228994
4	0.013	6921.0129	906.651	56.2195	6983.278947407857	885.4659524247124	-3.204820990597428	6905.361742156398	484.6131183661324	-94.77503215589297	6893.311553814015	103.00710612818769	-171.4748889330859	6819.351199642173	27.525956714844025	-12.193160572425802	6868.266527329395	899.9085928519668	127.86752487018288	6802.286219622257	498.49960375919386	227.3176934086169	6743.552432908664	67.68112739926138	295.7448995687682	6613.126736213904	-9.371902855902881	179.45397938881948	6876.429785332425	1031.4935112860892	3.1411625070087266	6820.956192411768	1094.0730603892414	-45.39623161165649	6758.090035763264	1153.5170890008094	-96.57430039171525	6691.130328723992	1201.7824389382454	-146.18423594719323	6619.373943737555	1253.7076606671094	-198.5616605480111	6553.31291471196	1301.3240542965948	-245.23130173986218	6436.764087288104	1401.3893314292532	-288.01632019629193	6655.50872376724	1229.711059707681	-203.66901257726852	6660.141645311393	1168.1724748472218	-287.21761066777947	6666.979769891726	934.6589773849361	-174.04815192797773	6691.558362770784	671.4271402416246	-47.15474209952703	6686.525045178998	637.563837866961	-44.698293732649404	6679.976344554182	613.903688870988	-30.727970840245575	6676.796505586695	597.3899701200356	-18.07015093046931	6675.326740275731	583.5917297994934	-5.0122877309580645	6691.571900147614	632.647157539401	-34.0570606518765	6694.29109684211	580.5107363958402	-2.815009471828205	6693.195815778568	553.1915010320593	19.371928074039545	6689.539310221308	545.202287416039	28.599984141760274	6684.505710571123	544.6571235187831	33.158436706588304	6695.090465164193	634.7877569989278	-27.157191381430323	6699.646734488156	585.0907538190071	7.0473830420965555	6698.903279259683	555.742787407659	32.06738258773055	6694.7085952165	546.3261845634398	43.589202932865305	6689.306295620386	545.8376504788388	48.765840479612336	6697.546841985059	637.5289081776249	-23.058842092650025	6703.879227540168	595.0726717903545	11.213918576053686	6703.685308292508	570.0453020200981	33.79484440379713	6699.880337236233	561.2556359124193	45.319261891395854	6694.915078221758	560.935332602326	50.381227761160005	6699.984839714318	642.9992138916192	-19.404546508475562	6707.430652124667	607.0732047423388	14.363093952012036	6707.955868260384	588.0799603411857	33.502039616868444	6705.509688665919	582.1755727348077	42.419290362325455	6701.300723671485	582.1835243240903	47.19762476204073	6630.820557016178	1244.1140131651478	-157.48472696439268	6612.9167015692365	1226.0468383802354	-54.90080458597901	6710.142469400081	1000.3128154302625	-90.61491802351661	6798.94646662577	768.3666131989373	-94.45130540066151	6787.495066272259	749.9153839981001	-94.87907931697634	6785.154042999509	728.9727838533959	-111.90100402639672	6785.989626325973	712.5663437166006	-125.48814522553744	6788.795705489479	697.3303217849354	-138.29775817594447	6795.02646249363	740.9549086111592	-100.0601355369034	6799.296785477533	695.4921531188692	-119.6982881032101	6803.643664874169	667.7869000024064	-139.0842344633686	6804.760909163751	657.7329640495497	-151.3404449925074	6804.616377267971	654.2479931182825	-161.6224909823306	6801.649973286842	737.7686084156925	-104.36216199133636	6809.397381950155	691.7010136578328	-125.84196254269796	6815.002515227958	661.2010217452995	-147.50697366420357	6816.7639863054765	648.9427145933491	-162.53889424140914	6816.806886701121	645.0670109100248	-173.90854469905906	6806.223513854584	736.6167411117825	-106.8575689050553	6817.145702212043	694.1529334640325	-128.14861003322693	6822.8997843594825	667.368327256109	-147.52092340343953	6825.060148555409	655.4376545436315	-162.28009354620087	6825.319080590356	651.7430258655761	-173.09348843092863	6811.34737618124	737.0858924912403	-109.50220775457143	6824.535444001217	698.2085862216969	-130.52322415935143	6830.450609091188	676.6329869892313	-146.70622607357555	6832.6588688489965	667.869039203559	-157.79590889330547	6833.252243458542	664.5607104998619	-167.56144603464426
